<?xml version="1.0" standalone="no"?>
<!DOCTYPE svg PUBLIC "-//W3C//DTD SVG 20010904//EN"
 "http://www.w3.org/TR/2001/REC-SVG-20010904/DTD/svg10.dtd">
<svg version="1.0" xmlns="http://www.w3.org/2000/svg"
 width="538.000000pt" height="538.000000pt" viewBox="0 0 538.000000 538.000000"
 preserveAspectRatio="xMidYMid meet">
<metadata>
Created by potrace 1.11, written by Peter Selinger 2001-2013
</metadata>
<g transform="translate(0.000000,538.000000) scale(0.100000,-0.100000)"
fill="#000000" stroke="none">
<path d="M2528 5365 c-2 -2 -39 -6 -83 -9 -44 -4 -91 -8 -105 -11 -14 -2 -43
-7 -65 -10 -79 -11 -112 -17 -230 -46 -123 -31 -295 -86 -375 -122 -227 -100
-372 -180 -520 -285 -47 -33 -89 -64 -95 -69 -5 -4 -35 -28 -65 -53 -390 -319
-687 -750 -845 -1226 -42 -126 -64 -208 -85 -319 -6 -27 -12 -61 -15 -75 -3
-14 -8 -47 -11 -75 -3 -27 -7 -55 -9 -62 -15 -47 -22 -355 -11 -503 12 -158
22 -235 51 -370 2 -14 7 -35 9 -47 41 -202 163 -517 277 -715 330 -573 832
-993 1448 -1214 86 -32 243 -77 301 -88 14 -3 50 -10 80 -16 30 -6 73 -14 95
-16 21 -2 51 -6 65 -9 71 -13 172 -19 335 -19 168 0 358 9 373 18 4 2 34 7 67
11 32 3 62 8 65 10 3 2 22 6 42 9 111 17 331 84 488 148 67 27 294 140 345
171 114 70 293 195 325 228 9 8 27 23 41 32 l24 18 -120 119 c-66 66 -135 131
-152 145 l-33 26 -62 -49 c-382 -297 -876 -465 -1363 -463 -174 0 -382 21
-467 47 -18 5 -49 12 -88 20 -14 2 -63 17 -110 31 -47 15 -87 28 -90 28 -3 1
-14 5 -25 10 -11 4 -42 17 -70 27 -191 73 -453 232 -614 371 -75 66 -249 245
-303 312 -140 177 -257 378 -339 581 -31 78 -93 276 -103 331 -3 15 -7 40 -10
55 -11 52 -16 83 -22 128 -3 25 -8 56 -10 70 -9 53 -12 378 -4 445 5 39 12 91
15 117 3 26 9 69 15 95 5 26 12 59 14 73 20 105 94 326 149 445 48 104 132
254 185 328 19 29 46 68 60 87 13 19 26 37 30 40 4 3 25 28 46 55 138 174 389
387 601 510 56 33 225 117 240 121 6 1 33 12 60 25 28 13 55 24 60 25 6 1 46
13 90 27 73 23 188 55 225 62 131 24 245 38 332 39 59 0 108 3 108 6 0 7 197
-3 284 -14 21 -3 57 -8 80 -11 117 -16 344 -75 441 -115 11 -4 45 -18 75 -30
127 -51 283 -135 390 -209 36 -25 80 -55 98 -67 l33 -23 149 146 149 146 -47
37 c-53 42 -220 160 -227 160 -3 0 -28 15 -57 34 -104 66 -300 158 -473 221
-92 33 -335 98 -415 110 -25 4 -54 9 -65 11 -11 3 -45 7 -75 9 -30 3 -66 8
-80 11 -25 6 -416 14 -422 9z"/>
<path d="M2658 4745 c-2 -2 -40 -7 -83 -10 -44 -2 -96 -7 -115 -10 -19 -3 -51
-7 -70 -10 -81 -9 -287 -60 -345 -84 -11 -5 -54 -21 -95 -37 -229 -85 -489
-254 -677 -442 -112 -111 -136 -138 -220 -253 -88 -119 -220 -346 -224 -386
-1 -5 -9 -24 -19 -43 -22 -44 -73 -194 -95 -280 -19 -71 -19 -75 -30 -140 -4
-25 -9 -54 -11 -65 -26 -131 -25 -472 2 -608 2 -12 6 -39 10 -61 3 -22 7 -43
9 -46 2 -3 6 -23 9 -45 3 -22 10 -51 15 -65 9 -25 34 -110 35 -120 1 -3 7 -21
14 -40 118 -310 273 -553 492 -770 110 -109 243 -218 303 -249 15 -8 27 -18
27 -23 0 -4 5 -8 12 -8 6 0 19 -6 27 -14 30 -27 226 -125 331 -166 263 -102
481 -140 775 -135 225 4 325 15 480 56 22 6 47 13 55 14 34 8 180 60 255 92
207 89 410 222 590 387 l50 46 75 -74 c41 -41 140 -138 220 -215 l144 -141 29
33 c49 54 100 111 131 146 36 42 186 249 186 256 0 4 13 25 29 48 41 60 134
238 176 337 40 92 127 340 120 340 -3 0 0 12 6 26 11 30 48 194 54 239 2 17 7
47 10 67 4 20 8 54 10 75 2 21 7 61 10 88 9 67 9 350 0 450 -11 129 -12 137
-25 215 -32 196 -109 456 -191 642 -94 215 -260 483 -394 638 -55 63 -129 143
-168 181 l-37 36 -123 -119 c-67 -66 -166 -163 -220 -216 -83 -82 -100 -95
-110 -82 -7 8 -34 33 -62 55 -27 21 -52 42 -55 45 -7 8 -170 121 -201 139
-160 94 -234 129 -380 182 -115 40 -267 80 -364 94 -22 3 -56 8 -75 11 -19 3
-75 7 -123 8 -48 2 -90 6 -93 9 -3 3 -16 2 -28 -3 -12 -4 -29 -4 -38 1 -8 5
-17 6 -20 4z m322 -162 l35 -9 5 -194 5 -194 45 -13 c25 -7 54 -15 65 -17 122
-24 399 -168 524 -272 97 -81 94 -77 74 -100 -39 -44 -192 -211 -269 -292
l-80 -85 -56 45 c-455 371 -1151 242 -1454 -267 -62 -103 -99 -212 -130 -372
-4 -22 -9 -23 -104 -23 -55 0 -100 3 -100 8 0 59 56 269 96 362 137 316 445
579 776 665 120 32 164 38 293 40 192 2 351 -34 534 -121 l113 -55 44 48 c24
26 43 51 44 55 0 10 -149 92 -230 126 -41 17 -111 40 -155 51 -82 22 -98 25
-175 36 -25 4 -46 8 -47 9 -1 1 -3 87 -5 191 l-3 190 -120 0 c-156 0 -228 -8
-370 -39 -119 -26 -274 -81 -390 -139 -79 -40 -219 -126 -223 -138 -2 -5 -8
-9 -14 -9 -16 0 -112 -83 -214 -184 -75 -75 -129 -142 -222 -271 -44 -63 -160
-298 -161 -330 0 -3 -7 -18 -15 -34 -8 -15 -18 -39 -21 -52 -2 -13 -14 -58
-25 -101 -31 -120 -48 -261 -48 -413 -1 -277 58 -528 180 -769 34 -69 132
-232 148 -246 3 -3 23 -27 45 -55 111 -141 272 -284 428 -381 91 -57 267 -147
267 -137 0 3 6 1 13 -4 20 -16 195 -71 253 -79 l31 -4 -1 91 -1 91 -81 23
c-240 70 -473 207 -658 388 -99 98 -221 266 -286 397 -79 157 -148 404 -154
550 l-1 25 273 0 c150 0 277 -2 281 -5 4 -3 11 -28 14 -56 3 -28 18 -89 33
-135 113 -344 406 -596 774 -665 50 -9 235 -10 300 -1 176 25 354 105 494 224
22 18 42 33 45 33 3 0 92 -83 196 -185 l190 -186 -41 -37 c-34 -32 -95 -83
-129 -110 -184 -145 -497 -266 -745 -288 -41 -3 -79 -7 -85 -8 -6 0 -10 38
-10 99 l0 100 60 7 c109 13 132 17 181 29 122 29 257 84 372 151 45 27 82 51
82 54 0 3 -22 27 -48 54 l-48 49 -35 -21 c-71 -44 -187 -96 -269 -121 -410
-127 -854 -23 -1164 273 -140 134 -258 318 -311 488 l-21 67 -74 1 c-59 0 -76
-3 -81 -15 -4 -9 -3 -20 1 -26 6 -9 18 -47 20 -67 1 -16 70 -169 104 -233 98
-185 301 -396 486 -505 130 -76 318 -144 455 -166 78 -12 70 22 71 -290 1
-153 0 -286 -2 -295 -4 -14 -14 -14 -92 -2 -165 24 -249 44 -392 94 -86 30
-248 106 -330 155 -48 28 -197 131 -216 148 -7 6 -36 31 -65 56 -67 57 -184
178 -241 250 -49 62 -118 158 -118 165 0 2 -14 24 -30 49 -45 66 -134 258
-169 362 -113 338 -132 666 -60 1016 11 54 28 122 38 150 10 29 19 56 20 60
11 48 100 252 142 323 21 37 39 71 39 76 0 5 5 9 10 9 6 0 10 5 10 11 0 10
125 183 157 217 152 160 169 176 267 256 254 206 612 357 951 401 27 3 51 8
53 10 7 7 418 -4 452 -12z m413 -108 c109 -40 366 -174 397 -205 3 -3 39 -31
80 -62 104 -78 143 -114 139 -126 -6 -17 -120 -132 -130 -132 -6 0 -24 14 -42
30 -40 38 -206 157 -261 187 -74 41 -200 100 -272 127 l-71 27 0 103 0 104 47
-14 c27 -8 78 -25 113 -39z m-777 -365 c0 -94 -1 -100 -20 -101 -37 -2 -80 -7
-102 -12 -12 -3 -37 -8 -55 -11 -89 -14 -233 -66 -344 -124 -27 -14 -60 -30
-72 -36 -13 -6 -23 -14 -23 -18 0 -5 -6 -8 -14 -8 -8 0 -16 -4 -18 -8 -1 -5
-25 -23 -53 -42 -78 -52 -244 -226 -306 -320 -127 -191 -203 -402 -228 -632
-1 -5 -46 -8 -101 -8 l-101 0 6 58 c3 31 8 64 10 72 3 8 7 32 10 53 4 21 13
61 21 90 8 29 16 57 17 62 13 46 42 122 50 133 5 6 7 12 4 12 -7 0 83 182 93
190 4 3 9 12 12 21 9 23 150 207 200 259 36 38 125 117 204 180 84 68 288 173
421 216 91 30 271 68 340 72 l49 2 0 -100z m1379 -2716 l69 -66 -61 -58 c-33
-31 -87 -77 -119 -101 -33 -24 -61 -46 -64 -49 -19 -21 -175 -111 -275 -160
-182 -88 -429 -162 -585 -175 -25 -2 -45 -4 -45 -5 0 -1 -33 -4 -72 -6 l-73
-4 0 100 0 100 33 1 c17 1 41 3 52 4 11 1 45 5 76 8 31 4 76 11 100 16 24 5
57 12 72 15 121 22 323 101 472 186 87 49 225 151 300 222 22 21 42 38 45 38
3 0 36 -30 75 -66z"/>
</g>
</svg>
